<svg width="41" height="47" viewBox="0 0 41 47" fill="none" xmlns="http://www.w3.org/2000/svg">
<path fill-rule="evenodd" clip-rule="evenodd" d="M16.2874 0H16.6199V0.00216086C29.8678 0.174461 40.5524 10.6288 40.5524 23.5C40.5524 36.3712 29.8678 46.8255 16.6199 46.9978V47L16.2874 47L0 47V37.9863H15.955V37.9685C16.1753 37.9803 16.3969 37.9863 16.6198 37.9863C23.963 37.9863 29.9157 31.5006 29.9157 23.5C29.9157 15.4994 23.963 9.0137 16.6198 9.0137C16.3969 9.0137 16.1753 9.01968 15.955 9.0315V9.0137H0V0H16.2874ZM0 10.3014H14.6255V13.5205H9.30711V28.9726H5.31834V13.5205H0V10.3014Z" fill="#BFACE2"/>
</svg>
