<svg width="24" height="27" viewBox="0 0 24 27" fill="none" xmlns="http://www.w3.org/2000/svg">
<path fill-rule="evenodd" clip-rule="evenodd" d="M9.33003 0H9.52023V0.0012381C17.1091 0.100091 23.2296 6.10583 23.2296 13.5C23.2296 20.8942 17.1091 26.8999 9.52023 26.9988V27H9.34497L9.33003 27L9.31512 27H0V21.8219H9.13963V21.8117C9.26569 21.8185 9.39255 21.8219 9.52014 21.8219C13.7264 21.8219 17.1363 18.0961 17.1363 13.5C17.1363 8.90395 13.7264 5.1781 9.52014 5.1781C9.39255 5.1781 9.26569 5.18153 9.13963 5.1883V5.17808H0V0H9.33003ZM0 5.91782H8.37781V7.76713H5.33155V16.6438H3.0467V7.76713H0V5.91782Z" fill="#BFACE2"/>
</svg>
